<?xml version="1.0" standalone="no"?>
<!DOCTYPE svg PUBLIC "-//W3C//DTD SVG 20010904//EN"
 "http://www.w3.org/TR/2001/REC-SVG-20010904/DTD/svg10.dtd">
<svg version="1.0" xmlns="http://www.w3.org/2000/svg"
 width="412.000000pt" height="412.000000pt" viewBox="0 0 412.000000 412.000000"
 preserveAspectRatio="xMidYMid meet">
<metadata>
Created by potrace 1.14, written by Peter Selinger 2001-2017
</metadata>
<g transform="translate(0.000000,412.000000) scale(0.100000,-0.100000)"
fill="#000000" stroke="none">
<path d="M1918 4105 c-2 -1 -35 -6 -74 -9 -39 -4 -80 -8 -90 -10 -11 -2 -39
-7 -64 -11 -139 -21 -380 -102 -537 -180 -414 -206 -729 -521 -933 -933 -111
-224 -179 -463 -205 -717 -7 -66 -8 -328 -1 -360 2 -11 7 -51 11 -88 3 -37 8
-78 11 -90 2 -12 7 -35 10 -52 17 -99 80 -304 119 -390 81 -182 141 -289 233
-415 102 -140 247 -292 382 -401 232 -186 591 -356 850 -402 14 -3 52 -10 85
-16 128 -23 191 -28 362 -26 191 2 221 5 383 36 402 77 777 281 1073 583 245
250 440 598 519 926 22 93 22 95 33 160 4 25 9 54 11 65 22 117 22 432 -1 570
-6 38 -16 93 -22 125 -36 203 -165 515 -290 705 -318 482 -837 822 -1378 904
-38 6 -86 13 -105 16 -36 7 -376 15 -382 10z"/>
</g>
</svg>
