<svg xmlns="http://www.w3.org/2000/svg" xmlns:xlink="http://www.w3.org/1999/xlink" width="154.84" height="29.297" viewBox="0 0 154.84 29.297">
  <defs>
    <linearGradient id="linear-gradient" y1="0.5" x2="1" y2="0.5" gradientUnits="objectBoundingBox">
      <stop offset="0.079" stop-color="#ff8700"/>
      <stop offset="0.911" stop-color="#ffb200"/>
    </linearGradient>
  </defs>
  <g id="Gruppe_143" data-name="Gruppe 143" transform="translate(-56.594 -49)">
    <g id="Gruppe_28" data-name="Gruppe 28" transform="translate(106.29 -96.809)">
      <g id="Gruppe_26" data-name="Gruppe 26" transform="translate(-49.696 150.809)">
        <path id="Pfad_64" data-name="Pfad 64" d="M-34.234,170.412l-.24-2.666a6.724,6.724,0,0,1-6.051,3.065c-4.745,0-9.17-3.465-9.17-9.863s4.692-9.837,9.357-9.837a8.41,8.41,0,0,1,8.371,5.7l-2.373,1.013a5.963,5.963,0,0,0-6-4.318c-3.386,0-6.691,2.426-6.691,7.438s3.2,7.491,6.584,7.491c4.212,0,5.732-2.986,5.839-4.932h-6.558v-2.346h9.037v9.25Z" transform="translate(49.696 -150.926)" fill="#fff"/>
        <path id="Pfad_65" data-name="Pfad 65" d="M-3.64,167.79a6.473,6.473,0,0,1-6.558,6.825,6.473,6.473,0,0,1-6.558-6.825,6.466,6.466,0,0,1,6.558-6.8A6.466,6.466,0,0,1-3.64,167.79Zm-2.559,0c0-2.959-1.866-4.558-4-4.558s-4,1.6-4,4.558c0,2.986,1.866,4.585,4,4.585S-6.2,170.776-6.2,167.79Z" transform="translate(37.02 -154.728)" fill="#fff"/>
        <path id="Pfad_66" data-name="Pfad 66" d="M9.769,170.412v-19.3h2.506v19.3Z" transform="translate(26.812 -150.926)" fill="#fff"/>
        <path id="Pfad_67" data-name="Pfad 67" d="M29.094,168.467a4.293,4.293,0,0,1-3.972,2.293c-3.759,0-6.078-2.986-6.078-6.8,0-3.626,2.453-6.718,6.078-6.718,2.266,0,3.492,1.12,3.919,2.159v-8.291h2.48V168.04a20.156,20.156,0,0,0,.133,2.373H29.227a10.706,10.706,0,0,1-.133-1.733Zm-3.732.08c2.293,0,3.706-2,3.706-4.638s-1.387-4.452-3.679-4.452-3.785,1.866-3.785,4.505S22.963,168.546,25.362,168.546Z" transform="translate(23.243 -150.926)" fill="#fff"/>
        <path id="Pfad_68" data-name="Pfad 68" d="M47.088,167.79c0,2.933,1.839,4.505,3.919,4.505a3.485,3.485,0,0,0,3.572-2.639l2.213.96a5.892,5.892,0,0,1-5.785,4,6.82,6.82,0,0,1-.026-13.622,5.578,5.578,0,0,1,5.705,4.079l-2.266.96a3.364,3.364,0,0,0-3.439-2.72C48.955,163.311,47.088,164.8,47.088,167.79Z" transform="translate(13.435 -154.728)" fill="#fff"/>
        <path id="Pfad_69" data-name="Pfad 69" d="M80.4,167.79a6.562,6.562,0,1,1-6.558-6.8A6.473,6.473,0,0,1,80.4,167.79Zm-2.559,0c0-2.959-1.866-4.558-4-4.558s-4,1.6-4,4.558c0,2.986,1.866,4.585,4,4.585S77.84,170.776,77.84,167.79Z" transform="translate(4.678 -154.728)" fill="#fff"/>
        <path id="Pfad_70" data-name="Pfad 70" d="M94.684,150.809a1.8,1.8,0,1,1-1.786,1.812A1.8,1.8,0,0,1,94.684,150.809ZM93.458,170.3V157.473h2.479V170.3Z" transform="translate(-5.179 -150.809)" fill="#fff"/>
        <path id="Pfad_71" data-name="Pfad 71" d="M107.279,174.231h-2.506V161.409h2.453v1.839a4.39,4.39,0,0,1,3.945-2.212c3.065,0,4.585,2.212,4.585,5.065v8.131h-2.506v-7.7c0-1.786-.746-3.225-2.986-3.225-1.973,0-2.985,1.573-2.985,3.519Z" transform="translate(-9.749 -154.745)" fill="#fff"/>
      </g>
      <g id="Gruppe_27" data-name="Gruppe 27" transform="translate(58.376 153.641)">
        <path id="Pfad_72" data-name="Pfad 72" d="M125.982,155.412h.652c.436,0,.678.177.678.528v.009a.436.436,0,0,1-.3.438l.4.689h-.5l-.337-.6h-.112v.6h-.476Zm.629.759c.161,0,.24-.068.24-.2v-.009c0-.135-.084-.188-.238-.188h-.156v.4Z" transform="translate(-125.982 -155.412)" fill="#fff"/>
      </g>
      <circle id="Ellipse_21" data-name="Ellipse 21" cx="2.112" cy="2.112" r="2.112" transform="translate(56.927 152.379)" fill="none" stroke="#fff" stroke-miterlimit="10" stroke-width="0.6"/>
    </g>
    <circle id="Ellipse_8" data-name="Ellipse 8" cx="14.649" cy="14.649" r="14.649" transform="translate(182.137 49)" fill="url(#linear-gradient)"/>
  </g>
</svg>
