<svg xmlns="http://www.w3.org/2000/svg" xmlns:xlink="http://www.w3.org/1999/xlink" width="1032.648" height="185.053" viewBox="0 0 1032.648 185.053">
  <defs>
    <linearGradient id="linear-gradient" x1="0.5" x2="0.5" y2="0.868" gradientUnits="objectBoundingBox">
      <stop offset="0" stop-color="#43435a"/>
      <stop offset="1" stop-color="#0d0d15"/>
    </linearGradient>
  </defs>
  <path id="Pfad_141" data-name="Pfad 141" d="M6456.259,1112.54l3.713-1.666,1.4,1.333,1.807,1.333,2.511-1,1.306.167,3.612-.5h1.606l2.208.917,1.707-1.417,1.6,1.25,2.208-2.749,1.607,1.665,2.508-4.082h2.111s1-.334,1.4,0,2.91,1.916,2.91,1.916l2.311-2.065,2.407.4,3.411-.4,1.006,2.4,1.4,1.583.8,1.916,2.21.751,2.609-1.167h5.217l4.219-1.25,2.207.084,5.621-.084a7.477,7.477,0,0,1,1.1-.332c.2,0,1.908-.575,1.908-.575l.351-.426,2.607-1.375.805,1,1.1.8.751-.55h3.616a4.37,4.37,0,0,1,1.052,0c.15.083,1.1.55,1.1.55l1.756,1.115,2.157-.333h4.066s.955-.666,1.406-1,.453-.417.806-.541.6-.209.6-.209h2.458l.7.5a17.073,17.073,0,0,1,1.706.749,19.421,19.421,0,0,0,1.808.792l1.4-.5.6-.575,3.616-.8,2.257.062h.678a4.179,4.179,0,0,0,2.182-1.062l2.862-.063c2.484.126,4.064.126,4.064.126h5.345l2.935-.751a.744.744,0,0,1,.452-.125c.3,0,1.883.5,2.409.5s2.012-.186,2.012-.186h1.755a19.863,19.863,0,0,0,3.863-1.209l4.465.709,1.106-.709h3.311l1.458-.708a.918.918,0,0,1,.452-.208c.2,0,1.5.167,1.655,0s1.1.042,1.306,0,1.252.244,1.654-.066,1.406-1.058,1.658-1.184a11.037,11.037,0,0,1,1.655-.75c.4-.083,1.2-.207,1.2-.207s.051.042.251,0,2.006-1,2.006-1l.351-.875,3.062-1.833,1.156-5.791,3.563-7.333,2.308-.5,1.2,4.291.9.376,1.153-1.583,1.132-.042.451.126,3.84.685,2.708-1.561,4.29.187v.564s1.735.5,1.657.811,1.432,3.126,1.507,3.625a17.374,17.374,0,0,0,.828,2.063c.226.625,2.033,1.187,2.033,1.187l3.839-1.374,4.517-.25,5.194-1.5,3.639-.228,1.106-.833s3.712-.334,4.014-.417,7.929-1,7.929-1l1.907-.75,2.006-.084.9.417h1.3l.906-1h2.333l1.881-.291,1.581-.438c.225-.062,3.011-1.061,3.011-1.061h7.527l2.486-.5.9-.875,3.088-.543,1.655-2.02,1.505.375.45.625a20.706,20.706,0,0,1,3.088,1.937c.3.437,2.106,4.5,2.106,4.5l2.209-1.459,2.612-.667,1.806.25,6.324-.167,1-.333h1.906l3.416-.584,1.7-1,1.106-3h3.436l1.818,1.509,2.587-2.146h7l3.2-2.656,2.257,1.875h2.374l2.181-1.875,1.883-.937,3.914-.282,2.185,1.282h11.227l3.527-2.928h3.8l1.806-.843,3.415-.5h6.121l6.224,2.084s6.122-.417,6.625-.667,0-.25,1.5-.584a18.211,18.211,0,0,1,3.814-.333c.7,0,4.818-4.582,4.818-4.582l2.81-3h10.04l2-1.667h2.412l1.606-1.666h8.429l9.236,36.329,3.213-3.332,2.008,1,4.014.332h6.022l2.409-1,1.806.71,2.059-1.041,5.622,1.124,6.924-2.875,1.406,1.208,1.6-.5s2.109.043,2.311.084,2.71.125,2.71.125l2.458-1.165,1.907.666,1.906,2.916,1.205-.541,2.458-.042,3.111-.75,2.71-1.249,1.958,1.249,4.366-1.125h3.012l1.427-1.188.98-.811,3.464-.625,1.729.187.531,1.937,5.192.938,2.786.5,1.806-1.188h3.614l2.935-1.312,3.461-.125,1.358-1.562,3.687,5.791,5.622,5.833,2.208,5.166,7.228-.5,1.205.5,7.629-.668,6.222-1.333.8,1.666,10.637-3.708,3.614.688s2.257,0,2.486-.062,2.407-.5,2.407-.5l2.183-.813,5.8.563,2.107-.063.679-.812,2.183,1.25,1.658-.938,1.5,2.188,5.12-1.749,1.5.562,2.107-.875,3.991-4.062,3.916-.748,2.708-2,3.012-.5,8.731,3.249,18.371-2,11.743-11.624,3.312-3.125,3.832-4.749,4.6-10.5,5.419-1.25h3.012l12.647-3.749,11.442-28.5,2.407,2.166,4.818,13,4.417,2.333h4.818l3.214,7,4.416-13.333,2.81-2,6.425-2.333h7.628l3.21-2.3,3.213-4.538v-5.166l7.627-4.333v-4.5l2.811-1.833,2.009-4.666,2.209-.833s-.6-.5,0-1.834a13.663,13.663,0,0,1,1.2-2.166l6.425-1.5h10.839l4.218-9,3.813,1.667,4.416,1.5,2.409-1.5,9.035.667,3.01-.167,2.21,9.914,4.214,10.249,6.023,2.249,2.41,2.751,6.322-7.25,4.215-6.75,2.711-3.5,1.506-4,6.323-4.749,14.752-20,2.412,8.5a21.365,21.365,0,0,1,3.311,2.5c.9,1-.6,3.749,0,4.5a27.881,27.881,0,0,0,4.218,2.749l9.332-.75,8.733-.25,3.915-3.249,8.13-1.25v1.25l6.928.749,8.483-2.458,1.351.875,1.456-.667,1.407,1.126,6.074-1.668,3.912-7.124,1.808,13.915,2.008-5.249,2.609,7.166,3.713-8.916.8,1.833.7,2.583,1,3.418,2.008-.667a42.533,42.533,0,0,0,2.51-4.333c.7-1.583,2.008-12.248,2.008-12.248l2.611-10.416,3.408,12.332,2.41.666h5.02l2.006.833,1.807,5,7.227,3,1.607,2.666,4.015,4.667,2.009,8.664,3.813-18,3.413,2.666,4.012.833v2.5l3.213,8.332,5.419,4.832,3.614-1.666,1.4-8.832,2.409,11.831,5.221-7.832,2.206,5.832,3.917,1.5,2.408-9.5,9.035,17.747,3.914-3.5,4.517,6.75,3.713-7.832,1.809-5.667,3.011,1.166,3.01-.333h8.23v146.391H6456.259Z" transform="translate(-6456.259 -976.223)" fill="url(#linear-gradient)"/>
</svg>
